<svg width="99" height="99" viewBox="0 0 99 99" fill="none" xmlns="http://www.w3.org/2000/svg">
<g clip-path="url(#clip0_1_2)">
<rect width="99" height="99" rx="6" fill="white"/>
<path fill-rule="evenodd" clip-rule="evenodd" d="M44.0617 8.25683L43.992 16.2476C39.1177 17.6725 35.2842 17.699 29.652 21.8501C19.6038 29.2314 14.3986 40.0393 14.4356 50.6588C14.482 64.7946 23.9278 78.4386 39.8492 83.306C45.1655 84.9161 60.3176 87.3137 74.5315 73.205C91.0567 56.7515 83.6709 26.5653 63.4437 19.0765C63.045 18.8889 62.6462 18.7098 62.2473 18.5216C62.043 18.4323 61.8479 18.3429 61.644 18.2442C59.1205 17.1442 54.4943 16.3925 54.4943 16.3925L54.4661 8.42994C76.2797 10.5143 91.8635 29.7949 91.3904 50.3726C90.9358 70.6369 76.3967 91.0088 50.5841 92.3511C28.4273 93.4782 10.1488 75.2717 7.66265 58.8272C5.66723 45.5681 7.96702 32.8967 17.4587 21.9724C29.3878 8.05781 44.2822 8.31693 44.0617 8.25683Z" fill="#111111"/>
<path fill-rule="evenodd" clip-rule="evenodd" d="M45.2491 8.00042L52.8943 8.00213L52.8934 28.3271H45.2491C45.2491 21.5545 45.2491 8.00042 45.2491 8.00042Z" fill="#111111"/>
<path fill-rule="evenodd" clip-rule="evenodd" d="M43.9465 21.1702L43.9369 28.106C39.827 28.482 33.5461 35.6192 40.1896 42.0251C41.0708 42.8754 45.0884 43.4119 45.0884 43.4119L44.9871 35.3865L52.8023 35.404L52.8949 51.2074L52.6313 51.1325C52.6313 51.1325 43.0101 51.8394 39.9668 50.3633C37.3314 49.0928 34.3444 47.8041 32.5165 45.6932C29.8535 42.6151 28.9067 38.4905 29.4732 34.8134C30.2431 29.8303 31.8759 27.2263 34.2604 25.1151C37.4247 22.3148 41.5436 21.1702 43.9465 21.1702Z" fill="#111111"/>
<path fill-rule="evenodd" clip-rule="evenodd" d="M54.4402 36.0597C66.8361 39.0031 73.3068 49.6325 72.8338 59.3398C72.4348 67.2395 66.6916 75.7658 56.8096 79.5055C51.6696 81.4383 46.762 81.2055 41.3895 79.5773V83.5856C37.6594 82.6283 34.5286 81.3401 32.8813 80.0002V74.4864C29.6988 69.5749 24.9949 62.6676 29.5595 58.1763C29.4484 58.2298 31.9346 55.3856 35.7947 55.9579C39.6548 56.5304 40.647 58.1493 40.9071 60.2255C41.2227 62.7482 41.1392 66.2464 41.0648 70.7203C50.9922 74.8624 57.2832 70.353 60.4845 66.9621C64.8177 62.3992 64.1213 52.6294 60.0015 48.1922C57.719 45.7317 54.1917 44.4453 54.3395 44.4453L54.4402 36.0597Z" fill="#111111"/>
</g>
<defs>
<clipPath id="clip0_1_2">
<rect width="99" height="99" fill="white"/>
</clipPath>
</defs>
</svg>
