<svg width="224" height="46" viewBox="0 0 224 46" fill="none" xmlns="http://www.w3.org/2000/svg">
<path fill-rule="evenodd" clip-rule="evenodd" d="M48 0C35.2975 0 25 10.2975 25 23C25 35.7025 35.2975 46 48 46C60.7025 46 71 35.7025 71 23C71 22.6649 70.9928 22.3316 70.9787 22H57V8H65.4361C61.2182 3.10153 54.9713 0 48 0Z" fill="#00AAFF"/>
<path fill-rule="evenodd" clip-rule="evenodd" d="M150 46C162.703 46 173 35.7025 173 23C173 10.2975 162.703 2.91447e-06 150 0C137.297 0 127 10.2975 127 23C127 35.7025 137.297 46 150 46ZM149.5 23C154.194 23 158 19.1944 158 14.5C158 9.80558 154.194 6 149.5 6C144.806 6 141 9.80558 141 14.5C141 19.1944 144.806 23 149.5 23Z" fill="#00AAFF"/>
<path fill-rule="evenodd" clip-rule="evenodd" d="M10 0C4.47715 0 0 4.47715 0 10V36C0 41.5228 4.47715 46 10 46C15.5228 46 20 41.5228 20 36V10C20 4.47715 15.5228 0 10 0ZM10 17C13.866 17 17 13.866 17 10C17 6.13401 13.866 3 10 3C6.13401 3 3 6.13401 3 10C3 13.866 6.13401 17 10 17Z" fill="#00AAFF"/>
<path fill-rule="evenodd" clip-rule="evenodd" d="M82 7.50784C78.2728 11.5955 76 17.0323 76 23V37.9298C76 42.3869 79.6131 46 84.0702 46H88V38H110V46H113.93C118.387 46 122 42.3869 122 37.9298V23C122 10.2975 111.703 0 99 0C95.4161 0 92.0237 0.819694 89 2.28183V12H82V7.50784Z" fill="#00AAFF"/>
<path fill-rule="evenodd" clip-rule="evenodd" d="M186.07 0H190V8H212V1.90735e-06H215.93C220.387 2.86102e-06 224 3.61314 224 8.07018V23C224 28.4135 222.13 33.3903 219 37.3192V33H212V43.204C208.732 44.9868 204.985 46 201 46C188.297 46 178 35.7025 178 23V8.07017C178 3.61314 181.613 0 186.07 0Z" fill="#00AAFF"/>
</svg>
