<svg width="99" height="99" viewBox="0 0 99 99" fill="none" xmlns="http://www.w3.org/2000/svg">
<g clip-path="url(#clip0_1_2)">
<path fill-rule="evenodd" clip-rule="evenodd" d="M43.6323 1.08074L43.5514 10.359C37.8918 12.0135 33.4406 12.0442 26.9009 16.8642C15.2337 25.4348 9.18981 37.9842 9.23272 50.3147C9.28668 66.7281 20.2544 82.5706 38.7412 88.2222C44.914 90.0918 62.5075 92.8757 79.0116 76.4936C98.1994 57.3891 89.6236 22.3392 66.1373 13.6437C65.6743 13.4259 65.2113 13.2179 64.7481 12.9995C64.5109 12.8958 64.2843 12.7919 64.0476 12.6774C61.1175 11.4 55.7459 10.5273 55.7459 10.5273L55.7131 1.28174C81.0415 3.702 99.1362 26.0892 98.5869 49.9824C98.0591 73.5118 81.1773 97.1661 51.2056 98.7247C25.4788 100.033 4.25527 78.8933 1.36851 59.7992C-0.948422 44.4038 1.72192 29.6907 12.7429 17.0063C26.5941 0.849659 43.8884 1.15053 43.6323 1.08074Z" fill="#111111"/>
<path fill-rule="evenodd" clip-rule="evenodd" d="M45.011 0.783021L53.8881 0.785008L53.887 24.3849H45.0111C45.0111 16.521 45.011 0.783021 45.011 0.783021Z" fill="#111111"/>
<path fill-rule="evenodd" clip-rule="evenodd" d="M43.4986 16.0747L43.4874 24.1281C38.7154 24.5647 31.4224 32.8519 39.1364 40.2899C40.1595 41.2772 44.8245 41.9002 44.8245 41.9002L44.7069 32.5817L53.7813 32.602L53.8888 50.9517L53.5828 50.8647C53.5828 50.8647 42.4114 51.6856 38.8777 49.9716C35.8177 48.4964 32.3494 47 30.2269 44.549C27.1348 40.975 26.0356 36.1858 26.6933 31.9163C27.5873 26.1303 29.4831 23.1067 32.2518 20.6553C35.9259 17.4038 40.7085 16.0747 43.4986 16.0747Z" fill="#111111"/>
<path fill-rule="evenodd" clip-rule="evenodd" d="M55.6831 33.3633C70.0763 36.781 77.5896 49.123 77.0403 60.3944C76.5771 69.567 69.9085 79.4671 58.4343 83.8093C52.4661 86.0536 46.7678 85.7832 40.5296 83.8927V88.5468C36.1984 87.4353 32.5632 85.9396 30.6506 84.3837V77.9815C26.9552 72.2786 21.4934 64.2585 26.7935 59.0435C26.6645 59.1056 29.5513 55.8031 34.0333 56.4676C38.5154 57.1324 39.6675 59.0121 39.9695 61.4229C40.3359 64.352 40.239 68.4139 40.1526 73.6086C51.6796 78.4182 58.9842 73.1821 62.7013 69.2449C67.7326 63.9468 66.924 52.6029 62.1404 47.4507C59.4902 44.5938 55.3945 43.1001 55.5661 43.1001L55.6831 33.3633Z" fill="#111111"/>
</g>
<defs>
<clipPath id="clip0_1_2">
<rect width="99" height="99" fill="white"/>
</clipPath>
</defs>
</svg>
