<svg width="320" height="360" viewBox="0 0 320 360" fill="none" xmlns="http://www.w3.org/2000/svg">
<g clip-path="url(#clip0_1_2)">
<path d="M20 340V20C20 9 29 0 40 0H300C311 0 320 9 320 20V340C320 351 311 360 300 360H40C29 360 20 351 20 340Z" fill="#2196F3"/>
<path d="M50 280C44.6957 280 39.6086 282.107 35.8579 285.858C32.1071 289.609 30 294.696 30 300C30 305.304 32.1071 310.391 35.8579 314.142C39.6086 317.893 44.6957 320 50 320C55.3043 320 60.3914 317.893 64.1421 314.142C67.8929 310.391 70 305.304 70 300C70 294.696 67.8929 289.609 64.1421 285.858C60.3914 282.107 55.3043 280 50 280ZM50 200C44.6957 200 39.6086 202.107 35.8579 205.858C32.1071 209.609 30 214.696 30 220C30 225.304 32.1071 230.391 35.8579 234.142C39.6086 237.893 44.6957 240 50 240C55.3043 240 60.3914 237.893 64.1421 234.142C67.8929 230.391 70 225.304 70 220C70 214.696 67.8929 209.609 64.1421 205.858C60.3914 202.107 55.3043 200 50 200ZM50 120C44.6957 120 39.6086 122.107 35.8579 125.858C32.1071 129.609 30 134.696 30 140C30 145.304 32.1071 150.391 35.8579 154.142C39.6086 157.893 44.6957 160 50 160C55.3043 160 60.3914 157.893 64.1421 154.142C67.8929 150.391 70 145.304 70 140C70 134.696 67.8929 129.609 64.1421 125.858C60.3914 122.107 55.3043 120 50 120ZM50 40C44.6957 40 39.6086 42.1071 35.8579 45.8579C32.1071 49.6086 30 54.6957 30 60C30 65.3043 32.1071 70.3914 35.8579 74.1421C39.6086 77.8929 44.6957 80 50 80C55.3043 80 60.3914 77.8929 64.1421 74.1421C67.8929 70.3914 70 65.3043 70 60C70 54.6957 67.8929 49.6086 64.1421 45.8579C60.3914 42.1071 55.3043 40 50 40Z" fill="#1565C0"/>
<path d="M50 310H10C4 310 0 306 0 300C0 294 4 290 10 290H50C56 290 60 294 60 300C60 306 56 310 50 310ZM50 230H10C4 230 0 226 0 220C0 214 4 210 10 210H50C56 210 60 214 60 220C60 226 56 230 50 230ZM50 150H10C4 150 0 146 0 140C0 134 4 130 10 130H50C56 130 60 134 60 140C60 146 56 150 50 150ZM50 70H10C4 70 0 66 0 60C0 54 4 50 10 50H50C56 50 60 54 60 60C60 66 56 70 50 70Z" fill="#B0BEC5"/>
<path d="M76 40C76 31.7157 82.7157 25 91 25H282C290.284 25 297 31.7157 297 40V322C297 330.284 290.284 337 282 337H91C82.7157 337 76 330.284 76 322V40Z" fill="#F5F5F5"/>
<text fill="black" xml:space="preserve" style="white-space: pre" font-family="Inter" font-size="28" font-weight="600" letter-spacing="0em"><tspan x="84" y="175.682">BCS-051: Web </tspan><tspan x="84" y="209.682">Development</tspan></text>
</g>
<defs>
<clipPath id="clip0_1_2">
<rect width="320" height="360" fill="white"/>
</clipPath>
</defs>
</svg>
