<svg width="420" height="350" viewBox="0 0 420 350" fill="none" xmlns="http://www.w3.org/2000/svg">
<g clip-path="url(#clip0_21_23)">
<path d="M10 10H410V310H10V10Z" fill="#E8EAF6"/>
<path d="M80 60H340V100H80V60ZM80 120H340V140H80V120Z" fill="#9FA8DA"/>
<path d="M0 320H420V0H0V320ZM400 270C383.43 270 370 283.43 370 300H50C50 283.43 36.57 270 20 270V50C36.57 50 50 36.57 50 20H370C370 36.57 383.43 50 400 50V270Z" fill="#9FA8DA"/>
<path d="M210 170C182.38 170 160 192.39 160 220C160 247.62 182.38 270 210 270C237.61 270 260 247.62 260 220C260 192.39 237.61 170 210 170ZM210 250C193.43 250 180 236.57 180 220C180 203.43 193.43 190 210 190C226.57 190 240 203.43 240 220C240 236.57 226.57 250 210 250Z" fill="#9FA8DA"/>
<path d="M210 270C198.82 270 188.6 266.2 180.27 260H180V350L210 319.99L240 350V260H239.73C231.4 266.2 221.18 270 210 270Z" fill="#5C6BC0"/>
</g>
<defs>
<clipPath id="clip0_21_23">
<rect width="420" height="350" fill="white"/>
</clipPath>
</defs>
</svg>
