<svg width="240" height="240" viewBox="0 0 240 240" fill="none" xmlns="http://www.w3.org/2000/svg">
<path d="M210 35H30C24.475 35 20 39.475 20 45V195C20 200.525 24.475 205 30 205H210C215.525 205 220 200.525 220 195V45C220 39.475 215.525 35 210 35Z" fill="url(#paint0_linear_1_2)"/>
<path d="M185 45H55C55 58.805 43.805 70 30 70V170C43.805 170 55 181.195 55 195H185C185 181.195 196.195 170 210 170V70C196.195 70 185 58.805 185 45ZM160 115H80C77.24 115 75 112.76 75 110C75 107.24 77.24 105 80 105H160C162.76 105 165 107.24 165 110C165 112.76 162.76 115 160 115ZM165 95H75C69.475 95 65 90.525 65 85C65 79.475 69.475 75 75 75H165C170.525 75 175 79.475 175 85C175 90.525 170.525 95 165 95Z" fill="#F0F0F0"/>
<path d="M84.1213 163V136.818H94.6042C96.5304 136.818 98.1369 137.104 99.4238 137.675C100.711 138.246 101.678 139.038 102.326 140.053C102.974 141.058 103.297 142.217 103.297 143.53C103.297 144.553 103.093 145.452 102.684 146.227C102.275 146.994 101.712 147.625 100.996 148.119C100.289 148.605 99.4792 148.95 98.5673 149.155V149.411C99.5645 149.453 100.498 149.734 101.367 150.254C102.245 150.774 102.956 151.503 103.502 152.44C104.047 153.369 104.32 154.477 104.32 155.764C104.32 157.153 103.975 158.393 103.285 159.484C102.603 160.567 101.593 161.423 100.255 162.054C98.9167 162.685 97.2676 163 95.3074 163H84.1213ZM89.6568 158.474H94.1696C95.7122 158.474 96.8372 158.18 97.5446 157.592C98.252 156.996 98.6056 156.203 98.6056 155.214C98.6056 154.49 98.4309 153.851 98.0815 153.297C97.7321 152.743 97.2335 152.308 96.5858 151.993C95.9466 151.678 95.1838 151.52 94.2974 151.52H89.6568V158.474ZM89.6568 147.774H93.7605C94.519 147.774 95.1923 147.642 95.7804 147.378C96.377 147.105 96.8457 146.722 97.1866 146.227C97.536 145.733 97.7108 145.141 97.7108 144.45C97.7108 143.504 97.3741 142.741 96.7008 142.162C96.036 141.582 95.09 141.293 93.8627 141.293H89.6568V147.774ZM131.023 145.984H125.423C125.321 145.26 125.112 144.616 124.797 144.054C124.482 143.483 124.077 142.997 123.583 142.597C123.088 142.196 122.517 141.889 121.869 141.676C121.23 141.463 120.536 141.357 119.786 141.357C118.431 141.357 117.25 141.693 116.244 142.366C115.239 143.031 114.459 144.003 113.905 145.281C113.351 146.551 113.074 148.094 113.074 149.909C113.074 151.776 113.351 153.344 113.905 154.614C114.468 155.884 115.252 156.842 116.257 157.49C117.263 158.138 118.426 158.462 119.747 158.462C120.489 158.462 121.175 158.364 121.806 158.168C122.445 157.972 123.012 157.686 123.506 157.311C124 156.928 124.409 156.463 124.733 155.918C125.066 155.372 125.296 154.75 125.423 154.051L131.023 154.077C130.878 155.278 130.516 156.438 129.936 157.554C129.365 158.662 128.594 159.655 127.622 160.533C126.659 161.402 125.509 162.092 124.171 162.604C122.841 163.107 121.337 163.358 119.658 163.358C117.323 163.358 115.235 162.83 113.394 161.773C111.561 160.716 110.112 159.186 109.047 157.183C107.99 155.18 107.462 152.756 107.462 149.909C107.462 147.054 107.999 144.625 109.073 142.622C110.146 140.619 111.604 139.094 113.445 138.045C115.286 136.989 117.357 136.46 119.658 136.46C121.175 136.46 122.581 136.673 123.877 137.099C125.181 137.526 126.335 138.148 127.341 138.966C128.347 139.776 129.165 140.768 129.796 141.945C130.435 143.121 130.844 144.467 131.023 145.984ZM139.013 163H133.081L142.119 136.818H149.253L158.279 163H152.347L145.789 142.801H145.584L139.013 163ZM138.642 152.709H152.654V157.03H138.642V152.709Z" fill="black"/>
<defs>
<linearGradient id="paint0_linear_1_2" x1="20" y1="120" x2="220" y2="120" gradientUnits="userSpaceOnUse">
<stop stop-color="#32BDEF"/>
<stop offset="1" stop-color="#1EA2E4"/>
</linearGradient>
</defs>
</svg>
